# xmcd
#
# Track frame offsets:
#	150
#	9984
#	22885
#	37475
#	55719
#	71304
#	84253
#	98774
#	108180
#	119447
#	134562
#	142451
#	155245
#	166696
#	176832
#	185851
#	200355
#	212824
#	226592
#	242199
#	252817
#	261005
#	271651
#	284851
#	296527
#	308218
#
# Disc length: 4254 seconds
# Revision: 0
# Processed by: cddbd v1.5.2PL0 Copyright (c) Steve Scherf et al.
# Submitted via: dBpowerAMP V12.0
#
DISCID=80109c1a
DTITLE=The Moody Blues - The Magnificent Moodies
DYEAR=1965
DGENRE=Blues
TTITLE0=I'll Go Crazy
TTITLE1=Something You Got
TTITLE2=Go Now!
TTITLE3=Can't Nobody Love You
TTITLE4=I Don't Mind
TTITLE5=I've Got A Dream
TTITLE6=Let Me Go
TTITLE7=Stop
TTITLE8=Thank You Baby
TTITLE9=It Ain't Necessarily So
TTITLE10=True Story
TTITLE11=Bye Bye Bird
TTITLE12=People Gotta Go
TTITLE13=Steal Your Love Away
TTITLE14=Lose Your Money (But Don't Lose Your Mind)
TTITLE15=It's Easy Child
TTITLE16=I Don't Want To Go On Without You
TTITLE17=Time Is On My Side
TTITLE18=From The Bottom Of My Heart (I Love You)
TTITLE19=And My Baby's Gone
TTITLE20=Everyday
TTITLE21=You Don't (All The Time)
TTITLE22=Boulevard De La Madelaine
TTITLE23=This Is My House (But Nobody Calls)
TTITLE24=Life's Not Live
TTITLE25=He Can Win
EXTD=
EXTT0=
EXTT1=
EXTT2=
EXTT3=
EXTT4=
EXTT5=
EXTT6=
EXTT7=
EXTT8=
EXTT9=
EXTT10=
EXTT11=
EXTT12=
EXTT13=
EXTT14=
EXTT15=
EXTT16=
EXTT17=
EXTT18=
EXTT19=
EXTT20=
EXTT21=
EXTT22=
EXTT23=
EXTT24=
EXTT25=
PLAYORDER=
